HIERARCHY
ROOT Hips
{
	OFFSET 0.000000 0.000000 0.000000 
	CHANNELS 6 Xposition Yposition Zposition Zrotation Yrotation Xrotation
	JOINT LeftUpLeg
	{
		OFFSET 1.363060 -1.794630 0.839290 
		CHANNELS 3 Zrotation Yrotation Xrotation
		JOINT LeftLeg
		{
			OFFSET 2.448110 -6.726130 0.000000 
			CHANNELS 3 Zrotation Yrotation Xrotation
			JOINT LeftFoot
			{
				OFFSET 2.562200 -7.039590 0.000000 
				CHANNELS 3 Zrotation Yrotation Xrotation
				JOINT LeftToeBase
				{
					OFFSET 0.157640 -0.433110 2.322550 
					CHANNELS 3 Zrotation Yrotation Xrotation
					End Site
					{
						OFFSET 0.000000 0.000000 0.000000 
					}
				}
			}
		}
	}
	JOINT RightUpLeg
	{
		OFFSET -1.305520 -1.794630 0.839290 
		CHANNELS 3 Zrotation Yrotation Xrotation
		JOINT RightLeg
		{
			OFFSET -2.542530 -6.985550 0.000000 
			CHANNELS 3 Zrotation Yrotation Xrotation
			JOINT RightFoot
			{
				OFFSET -2.568260 -7.056230 0.000000 
				CHANNELS 3 Zrotation Yrotation Xrotation
				JOINT RightToeBase
				{
					OFFSET -0.164730 -0.452590 2.363150 
					CHANNELS 3 Zrotation Yrotation Xrotation
					End Site
					{
						OFFSET 0.000000 0.000000 0.000000 
					}
				}
			}
		}
	}
	JOINT Spine
	{
		OFFSET 0.028270 2.035590 -0.193380 
		CHANNELS 3 Zrotation Yrotation Xrotation
		JOINT Spine1
		{
			OFFSET 0.056720 2.048850 -0.042750 
			CHANNELS 3 Zrotation Yrotation Xrotation
			JOINT Neck1
			{
				OFFSET -0.054170 1.746240 0.172020 
				CHANNELS 3 Zrotation Yrotation Xrotation
				JOINT Head
				{
					OFFSET 0.104070 1.761360 -0.123970 
					CHANNELS 3 Zrotation Yrotation Xrotation
					End Site
					{
						OFFSET 0.000000 0.000000 0.000000 
					}
				}
			}
			JOINT LeftArm
			{
				OFFSET 3.362410 1.200890 -0.311210 
				CHANNELS 3 Zrotation Yrotation Xrotation
				JOINT LeftForeArm
				{
					OFFSET 4.983000 -0.000000 -0.000000 
					CHANNELS 3 Zrotation Yrotation Xrotation
					JOINT LeftHand
					{
						OFFSET 3.483560 -0.000000 -0.000000 
						CHANNELS 3 Zrotation Yrotation Xrotation
						JOINT LeftHandIndex1
						{
							OFFSET 0.715260 -0.000000 -0.000000 
							CHANNELS 3 Zrotation Yrotation Xrotation
							End Site
							{
								OFFSET 0.000000 0.000000 0.000000 
							}
						}
					}
				}
			}
			JOINT RightArm
			{
				OFFSET -3.136600 1.374050 -0.404650 
				CHANNELS 3 Zrotation Yrotation Xrotation
				JOINT RightForeArm
				{
					OFFSET -5.241900 -0.000000 -0.000000 
					CHANNELS 3 Zrotation Yrotation Xrotation
					JOINT RightHand
					{
						OFFSET -3.444170 -0.000000 -0.000000 
						CHANNELS 3 Zrotation Yrotation Xrotation
						JOINT RightHandIndex1
						{
							OFFSET -0.622530 -0.000000 -0.000000 
							CHANNELS 3 Zrotation Yrotation Xrotation
							End Site
							{
								OFFSET 0.000000 0.000000 0.000000 
							}
						}
					}
				}
			}
		}
	}
}
MOTION
Frames: 9
Frame Time: 0.041667
12.812318 17.638419 -32.264146 -2.054034 -8.276634 0.888234 -12.080723 -7.043004 -27.738695 0.213183 8.925957 24.760977 0.566434 2.864125 16.069056 0.349600 -3.799200 -10.512500 26.375534 5.517292 8.883511 -4.663015 -11.892554 39.910124 -1.465989 -1.424368 26.914602 -0.164800 -2.615300 7.209500 0.973597 4.266796 -1.867252 0.900153 2.711656 -3.360750 3.479482 -3.397917 13.842446 2.737700 -2.156900 8.507400 -83.098638 11.817238 12.478939 8.274811 -17.085611 -1.483265 -1.402246 -3.485630 16.690207 -7.125000 0.000000 0.000000 78.415183 -1.022245 18.067449 -28.479064 37.925776 -13.404024 1.205921 0.252393 -0.859075 7.125000 0.000000 0.000000 
12.806648 17.648007 -32.005795 -1.577558 -7.208373 0.673119 -13.063972 -7.114794 -27.268342 0.307375 9.080717 25.427353 0.743757 1.981042 15.900670 0.089300 -1.927000 -5.304000 26.012626 5.148813 7.120678 -5.613606 -12.827011 43.289144 -1.662581 -2.725163 29.441510 -0.306700 -3.560800 9.844100 0.908739 3.704192 -1.857316 0.813281 2.417122 -3.328318 3.607273 -3.314984 13.702595 2.827500 -2.109300 8.447500 -82.980345 11.444753 11.815237 8.189436 -16.904345 -1.468340 -1.264171 -3.448994 17.584456 -7.125000 0.000000 0.000000 78.864902 -1.481500 18.038628 -28.716929 38.123274 -13.565093 1.265698 0.216383 -2.138202 7.125000 0.000000 0.000000 
12.809535 17.675739 -31.746309 -1.032608 -7.738422 0.309157 -14.016106 -6.239340 -26.535994 0.384521 9.147864 25.816969 0.733245 1.868502 15.689936 0.030900 -1.134000 -3.117600 25.369951 6.065708 5.704658 -6.564715 -13.694435 46.545951 -2.038798 -3.703542 32.416666 -0.447000 -4.289700 11.893000 0.780804 3.961788 -1.802062 0.605862 2.525906 -3.376440 3.640750 -3.450392 13.552056 2.815900 -2.154500 8.445900 -82.820609 11.019670 11.591524 8.169935 -16.648692 -1.034491 -1.232346 -4.866758 18.550615 -7.125000 0.000000 0.000000 79.362596 -1.710956 17.534880 -28.896153 38.253193 -13.692075 1.269187 0.220318 -2.270019 7.125000 0.000000 0.000000 
12.811906 17.711719 -31.477545 -0.445532 -7.935174 0.019248 -15.074221 -5.532372 -25.797874 0.451235 9.208449 26.227576 0.828916 1.235422 15.185717 0.041400 -1.314000 -3.613200 24.720691 6.681190 4.168349 -7.480707 -14.462139 49.672270 -2.343989 -4.207468 34.302925 -0.578000 -4.868300 13.533300 0.686106 4.093328 -1.703340 0.539751 2.575041 -3.096285 3.553421 -3.554331 13.743439 2.718300 -2.192200 8.737000 -82.734895 10.570917 11.101861 8.107091 -16.599758 -1.237894 -1.343639 -4.072539 18.145812 -7.125000 0.000000 0.000000 79.724116 -1.748478 17.138436 -29.119378 38.418652 -13.848115 1.289282 0.244130 -2.613605 7.125000 0.000000 0.000000 
12.806854 17.740997 -31.223008 0.001812 -8.052325 -0.215565 -15.895419 -5.035245 -25.070100 0.506688 9.245866 26.539070 0.902184 0.722053 14.704557 0.019700 -0.905400 -2.488600 24.342576 7.237537 2.630829 -8.401887 -15.158269 52.764519 -2.300205 -4.873639 34.281463 -0.614900 -5.018500 13.961400 0.674708 4.017584 -1.602368 0.755480 2.522316 -2.790860 3.456964 -3.296507 13.947052 2.672700 -2.076300 9.007500 -82.922260 10.189510 10.580420 8.148050 -16.691298 -1.369038 -1.363867 -3.633601 17.741705 -7.125000 0.000000 0.000000 79.829482 -1.535810 17.243099 -29.158448 38.425147 -13.861084 1.309052 0.285149 -2.875180 7.125000 0.000000 0.000000 
12.803967 17.766564 -30.967234 0.545467 -8.114342 -0.402362 -16.725092 -5.029660 -24.213414 0.580508 9.275009 26.752963 0.704470 1.305789 14.174324 0.000100 -0.056100 -0.154100 23.791181 7.669296 0.924079 -9.320372 -15.789809 55.760789 -2.014941 -5.807700 33.122738 -0.607700 -4.989700 13.879200 0.636438 3.774651 -1.538876 0.876648 2.384323 -2.590224 3.451056 -2.928900 13.920636 2.722000 -1.910400 9.124300 -83.127988 9.716781 9.896816 8.189969 -16.711479 -1.383586 -1.366547 -3.609478 17.720861 -7.125000 0.000000 0.000000 79.941148 -1.339476 17.563450 -28.910327 38.206386 -13.670319 1.295400 0.287149 -2.796424 7.125000 0.000000 0.000000 
12.801390 17.794606 -30.714347 0.943669 -8.036620 -0.390067 -17.430362 -5.231739 -23.296967 0.653021 9.293535 26.894980 0.393933 2.266705 13.304500 0.000800 -0.184900 -0.508100 23.381081 8.029264 -0.966816 -10.168386 -16.343411 58.547987 -1.661512 -6.483911 31.433922 -0.534000 -4.682300 13.004500 0.618478 3.529570 -1.315952 0.932167 2.221500 -1.637245 3.402768 -2.770541 13.982464 2.743800 -1.842000 9.648500 -83.417783 7.849175 9.571886 8.147222 -16.435081 -1.293690 -1.382412 -3.773214 18.033034 -7.125000 0.000000 0.000000 79.978752 -0.038058 17.653871 -28.471988 37.803041 -13.324607 1.273165 0.269738 -2.628196 7.125000 0.000000 0.000000 
12.795205 17.825430 -30.481562 1.328197 -7.829796 -0.560951 -18.142921 -5.333726 -22.326639 0.671521 9.242542 26.950882 0.394139 1.949633 12.243559 0.017100 -0.845500 -2.323800 22.943098 8.186239 -2.863891 -10.916196 -16.790320 60.996667 -1.261158 -7.004193 29.356856 -0.355900 -3.832500 10.606000 0.549570 3.216667 -1.667612 0.900402 2.096656 -3.230572 3.280524 -2.583161 13.710190 2.672500 -1.762700 8.898900 -82.924147 9.383446 9.601664 7.914616 -16.133908 -1.230271 -1.434417 -3.681715 17.477698 -7.125000 0.000000 0.000000 80.395804 -1.997975 18.064641 -28.231734 37.609826 -13.148187 1.283652 0.279609 -2.491694 7.125000 0.000000 0.000000 
12.794998 17.856977 -30.223623 1.623790 -8.108314 -0.783172 -18.700088 -5.254030 -21.195587 0.694438 9.164823 26.878560 0.179730 2.507855 11.205842 0.020800 -0.931000 -2.558900 22.489672 8.595926 -4.528925 -11.554734 -17.153275 63.014979 -0.836123 -7.763629 27.289783 -0.248800 -3.209300 8.862100 0.378979 3.256767 -1.957755 0.276261 2.124389 -4.641223 3.212764 -2.509728 13.913901 2.572300 -1.716100 8.925800 -82.124907 10.134332 10.171273 7.758196 -15.853964 -1.148791 -1.453511 -3.752662 17.101962 -7.125000 0.000000 0.000000 81.119958 -3.394024 18.078723 -27.985098 37.354408 -12.946473 1.277513 0.283712 -2.270839 7.125000 0.000000 0.000000 
